<svg width="593" height="147" viewBox="0 0 593 147" fill="none" xmlns="http://www.w3.org/2000/svg">
<path d="M22.9247 109.962C15.0756 109.962 9.33972 107.396 5.71706 102.264C2.09439 97.0314 1.23904 90.0879 3.151 81.4338L13.2643 37.6599L17.7926 46.1128H0.584944L0.735889 43.5467L30.7738 15.9239H33.9437L19.453 78.5658C18.0442 84.8049 18.1448 89.6351 19.7549 93.0565C21.4656 96.4779 24.6354 98.1886 29.2644 98.1886C33.0883 98.1886 36.56 97.132 39.6796 95.0188C42.8997 92.9056 45.5664 89.786 47.6796 85.6602L51.7551 87.4716C50.145 91.9999 47.8306 95.9244 44.8117 99.2452C41.8934 102.566 38.5223 105.182 34.6984 107.094C30.9751 109.006 27.0505 109.962 22.9247 109.962ZM53.5664 48.0751L20.2077 42.792L21.5662 37.2071L56.4344 33.2825H58.3967L55.2268 47.0184L53.5664 48.0751ZM74.6763 105.434L84.1858 64.2261H91.582C96.6135 52.9556 101.444 44.9555 106.073 40.2259C110.702 35.4963 115.985 33.1316 121.922 33.1316C125.142 33.1316 128.312 33.8863 131.431 35.3957L120.865 59.2449H118.45L107.129 41.5844H113.922V46.1128C110.299 46.1128 106.475 48.6285 102.45 53.66C98.5255 58.5908 94.8022 65.484 91.2802 74.3394C87.7581 83.1948 84.6386 93.5596 81.9216 105.434H74.6763ZM65.6196 108L77.997 54.2638C78.9027 50.2386 79.1543 47.2197 78.7518 45.2071C78.4499 43.0939 77.4939 42.0373 75.8838 42.0373C72.563 42.0373 69.3932 46.0121 66.3743 53.9619L62.2988 53.0562C63.9089 47.0184 66.6259 42.1882 70.4498 38.5656C74.2737 34.9429 78.5002 33.1316 83.1292 33.1316C87.8587 33.1316 91.1795 34.9932 93.0915 38.7165C95.0034 42.3392 95.255 47.27 93.8462 53.5091L81.3178 108H65.6196ZM143.765 109.962C138.834 109.962 134.91 107.899 131.992 103.774C129.073 99.6477 127.614 94.0628 127.614 87.0187C127.614 79.4715 128.822 72.4274 131.237 65.8865C133.652 59.3456 136.973 53.66 141.199 48.8298C145.526 43.8989 150.507 40.075 156.143 37.358C161.879 34.5404 168.017 33.1316 174.558 33.1316C178.583 33.1316 182.306 33.836 185.728 35.2448C189.25 36.6536 192.319 38.7165 194.935 41.4335L188.143 61.2072C188.143 54.3644 186.885 49.1317 184.369 45.509C181.954 41.8863 178.382 40.075 173.652 40.075C170.13 40.075 166.86 40.9303 163.841 42.6411C160.923 44.2511 158.256 46.5656 155.841 49.5845C153.426 52.5028 151.363 55.9242 149.652 59.8487C147.941 63.7733 146.583 67.9997 145.577 72.5281C144.671 77.0564 144.218 81.7357 144.218 86.5659C144.218 94.2137 146.583 98.0377 151.312 98.0377C154.231 98.0377 157.25 96.6289 160.369 93.8112C163.589 90.9936 166.709 87.069 169.728 82.0376C172.847 77.0061 175.665 71.0689 178.181 64.2261C180.797 57.3833 183.061 49.987 184.973 42.0373L192.218 42.9429L185.879 76.7545H176.671C171.539 88.6288 166.407 97.132 161.275 102.264C156.243 107.396 150.407 109.962 143.765 109.962ZM185.275 109.962C180.344 109.962 176.872 108.101 174.86 104.377C172.847 100.654 172.646 95.4716 174.256 88.8301L185.275 40.6788H187.841L199.615 33.8863H202.483L189.803 88.6791C188.998 92.7043 188.797 95.7735 189.199 97.8867C189.602 99.8993 190.558 100.906 192.067 100.906C193.979 100.906 195.791 99.9496 197.501 98.0377C199.212 96.1257 201.174 92.8552 203.388 88.2263L207.162 89.8867C205.25 95.9244 202.332 100.805 198.407 104.528C194.483 108.151 190.105 109.962 185.275 109.962ZM277.233 109.962C271.9 109.962 268.227 108.101 266.214 104.377C264.202 100.553 264.101 95.4716 265.912 89.1319L272.856 64.3771C276.478 51.3958 275.221 44.9052 269.082 44.9052C265.862 44.9052 262.591 46.4147 259.271 49.4336C255.95 52.4524 252.629 56.7292 249.308 62.2638C246.088 67.7985 243.069 74.2388 240.252 81.5847C237.535 88.9307 235.17 96.9811 233.157 105.736H226.063L234.516 68.3016H242.063C252.227 44.8549 263.9 33.1316 277.082 33.1316C283.623 33.1316 288 35.4963 290.214 40.2259C292.529 44.9555 292.428 51.5971 289.912 60.1506L281.761 88.6791C280.655 92.503 280.302 95.5219 280.705 97.7358C281.107 99.849 282.214 100.906 284.026 100.906C285.938 100.906 287.699 99.9496 289.309 98.0377C291.019 96.1257 293.032 92.8552 295.346 88.2263L299.12 89.8867C297.208 95.9244 294.24 100.805 290.214 104.528C286.29 108.151 281.963 109.962 277.233 109.962ZM217.006 108L229.384 54.2638C230.289 50.2386 230.541 47.2197 230.138 45.2071C229.837 43.0939 228.881 42.0373 227.27 42.0373C223.95 42.0373 220.78 46.0121 217.761 53.9619L213.685 53.0562C215.296 47.0184 218.013 42.1882 221.836 38.5656C225.66 34.9429 229.887 33.1316 234.516 33.1316C239.245 33.1316 242.566 34.9932 244.478 38.7165C246.39 42.3392 246.642 47.27 245.233 53.5091L232.704 108H217.006ZM291.507 146.642L285.469 128.378L285.922 127.019L328.79 111.774L332.111 109.359L342.828 100.302C349.168 94.7672 353.998 88.4275 357.319 81.2828C360.639 74.1381 362.3 66.5909 362.3 58.6412C362.4 50.6914 360.69 42.792 357.168 34.9429H375.281C378.4 41.2826 379.457 48.226 378.451 55.7732C377.545 63.3204 374.828 70.8173 370.3 78.2639C365.872 85.7105 359.784 92.6037 352.035 98.9433L293.922 146.642H291.507ZM326.677 115.698L319.281 50.6411C318.979 47.7229 318.425 45.5593 317.62 44.1505C316.916 42.7417 315.96 42.0373 314.752 42.0373C313.142 42.0373 311.532 42.9933 309.922 44.9052C308.312 46.8172 306.35 50.0876 304.035 54.7166L300.262 53.0562C302.274 46.8172 305.142 41.9366 308.865 38.4146C312.689 34.8926 317.016 33.1316 321.847 33.1316C326.174 33.1316 329.293 34.3391 331.205 36.7542C333.117 39.1693 334.375 43.5467 334.979 49.8864L340.413 105.132L326.677 115.698ZM431.864 29.9733C437.902 29.9733 443.29 31.2273 448.027 33.7353C452.857 36.2433 456.619 39.9589 459.313 44.882C462.007 49.8051 463.354 55.75 463.354 62.7167V108H447.609V65.0853C447.609 58.2116 445.89 52.9633 442.454 49.3407C439.017 45.6251 434.326 43.7673 428.381 43.7673C422.436 43.7673 417.699 45.6251 414.169 49.3407C410.732 52.9633 409.014 58.2116 409.014 65.0853V108H393.13V31.2273H409.014V40.0053C411.614 36.8471 414.912 34.3856 418.906 32.6207C422.993 30.8558 427.313 29.9733 431.864 29.9733ZM523.325 29.9733C529.177 29.9733 534.378 31.2273 538.93 33.7353C543.574 36.2433 547.197 39.9589 549.798 44.882C552.492 49.8051 553.839 55.75 553.839 62.7167V108H538.094V65.0853C538.094 58.2116 536.376 52.9633 532.939 49.3407C529.502 45.6251 524.811 43.7673 518.866 43.7673C512.921 43.7673 508.184 45.6251 504.654 49.3407C501.217 52.9633 499.499 58.2116 499.499 65.0853V108H483.615V4.89334H499.499V40.1447C502.192 36.8936 505.583 34.3856 509.67 32.6207C513.85 30.8558 518.402 29.9733 523.325 29.9733ZM582.181 21.056C579.301 21.056 576.886 20.0807 574.936 18.13C572.985 16.1793 572.01 13.7642 572.01 10.8847C572.01 8.00511 572.985 5.59 574.936 3.63934C576.886 1.68867 579.301 0.713332 582.181 0.713332C584.968 0.713332 587.336 1.68867 589.287 3.63934C591.238 5.59 592.213 8.00511 592.213 10.8847C592.213 13.7642 591.238 16.1793 589.287 18.13C587.336 20.0807 584.968 21.056 582.181 21.056ZM589.984 31.2273V108H574.1V31.2273H589.984Z" fill="black"/>
</svg>
