<?xml version="1.0" encoding="UTF-8"?>
<svg width="24" height="24" viewBox="0 0 24 24" fill="none" xmlns="http://www.w3.org/2000/svg">
  <path d="M7.803 5.731C8.241 5.731 8.642 5.75 9.005 5.788C9.369 5.825 9.687 5.904 9.96 6.023C10.233 6.142 10.454 6.322 10.622 6.563C10.79 6.803 10.874 7.131 10.874 7.546C10.874 7.992 10.751 8.363 10.506 8.659C10.26 8.955 9.912 9.185 9.461 9.349C10.094 9.483 10.564 9.744 10.87 10.132C11.176 10.52 11.329 11.013 11.329 11.611C11.329 12.077 11.233 12.477 11.041 12.812C10.849 13.147 10.587 13.419 10.255 13.628C9.923 13.837 9.537 13.986 9.097 14.075C8.657 14.164 8.193 14.209 7.704 14.209H3V5.731H7.803ZM7.453 9.195C7.841 9.195 8.166 9.123 8.427 8.98C8.688 8.837 8.819 8.57 8.819 8.179C8.819 7.969 8.774 7.803 8.684 7.681C8.594 7.558 8.474 7.467 8.324 7.407C8.174 7.347 8.004 7.31 7.814 7.295C7.624 7.28 7.434 7.272 7.244 7.272H5.126V9.195H7.453ZM7.603 12.667C7.808 12.667 8.008 12.652 8.203 12.622C8.398 12.592 8.573 12.537 8.728 12.457C8.883 12.377 9.008 12.262 9.103 12.112C9.198 11.962 9.246 11.762 9.246 11.512C9.246 11.022 9.093 10.682 8.788 10.492C8.483 10.302 8.068 10.207 7.543 10.207H5.126V12.667H7.603ZM14.853 12.712C15.158 13.007 15.608 13.155 16.203 13.155C16.633 13.155 17.008 13.047 17.328 12.832C17.648 12.617 17.853 12.387 17.943 12.142H19.798C19.478 13.047 18.983 13.737 18.313 14.212C17.643 14.687 16.823 14.925 15.853 14.925C15.133 14.925 14.488 14.82 13.918 14.61C13.348 14.4 12.868 14.097 12.478 13.702C12.088 13.307 11.788 12.827 11.578 12.262C11.368 11.697 11.263 11.067 11.263 10.372C11.263 9.702 11.373 9.087 11.593 8.527C11.813 7.967 12.123 7.487 12.523 7.087C12.923 6.687 13.403 6.377 13.963 6.157C14.523 5.937 15.143 5.827 15.823 5.827C16.558 5.827 17.213 5.967 17.788 6.247C18.363 6.527 18.843 6.917 19.228 7.417C19.613 7.917 19.898 8.507 20.083 9.187C20.268 9.867 20.333 10.607 20.278 11.407H13.418C13.418 12.007 13.548 12.417 13.853 12.712H14.853ZM17.203 8.177C16.948 7.912 16.528 7.779 15.943 7.779C15.553 7.779 15.233 7.847 14.983 7.982C14.733 8.117 14.533 8.287 14.383 8.492C14.233 8.697 14.133 8.912 14.083 9.137C14.033 9.362 14.003 9.557 13.993 9.722H17.803C17.703 8.987 17.458 8.442 17.203 8.177ZM15.258 3.527H18.543V4.647H15.258V3.527Z" fill="currentColor"/>
</svg>