<?xml version="1.0" encoding="UTF-8"?>
<svg width="24" height="24" viewBox="0 0 24 24" fill="none" xmlns="http://www.w3.org/2000/svg">
  <path d="M19 3H5C3.895 3 3 3.895 3 5V19C3 20.105 3.895 21 5 21H19C20.105 21 21 20.105 21 19V5C21 3.895 20.105 3 19 3ZM9 17H6.477V9H9V17ZM7.694 8.059C6.872 8.059 6.207 7.381 6.207 6.559C6.207 5.737 6.872 5.059 7.694 5.059C8.516 5.059 9.181 5.737 9.181 6.559C9.181 7.381 8.516 8.059 7.694 8.059ZM18 17H15.477V13.5C15.477 12.397 15.459 10.977 13.939 10.977C12.4 10.977 12.162 12.187 12.162 13.436V17H9.639V9H12.062V10.181H12.099C12.499 9.495 13.399 8.767 14.777 8.767C17.339 8.767 18 10.727 18 13.205V17Z" fill="currentColor"/>
</svg>