<svg width="512" height="512" viewBox="0 0 512 512" fill="none" xmlns="http://www.w3.org/2000/svg">
<g filter="url(#filter0_d_4_2)">
<path d="M504 256C503.867 232.794 494.521 210.591 478.018 194.275C461.514 177.96 439.206 168.868 416 169C413.2 169 410.4 169.16 407.696 169.416C409.296 167.2 410.808 164.912 412.208 162.512C417.978 152.615 421.723 141.669 423.226 130.312C424.729 118.955 423.959 107.412 420.963 96.3548C417.966 85.2975 412.801 74.946 405.769 65.9019C398.737 56.8578 389.978 49.3014 380 43.672C359.799 32.1195 335.862 28.9833 313.367 34.9418C290.871 40.9002 271.626 55.4743 259.792 75.512C258.384 77.912 257.144 80.36 256 82.832C254.856 80.36 253.6 77.912 252.208 75.512C240.374 55.4743 221.129 40.9002 198.633 34.9418C176.138 28.9833 152.201 32.1195 132 43.672C122.022 49.3014 113.263 56.8578 106.231 65.9019C99.1986 74.946 94.0341 85.2975 91.0374 96.3548C88.0406 107.412 87.2713 118.955 88.7743 130.312C90.2772 141.669 94.0223 152.615 99.792 162.512C101.192 164.912 102.712 167.2 104.304 169.416C101.568 169.16 98.8 169 96 169C84.4757 168.844 73.0352 170.979 62.3429 175.281C51.6506 179.583 41.9195 185.966 33.7148 194.06C25.51 202.155 18.9952 211.798 14.5486 222.431C10.1019 233.064 7.81213 244.475 7.81213 256C7.81213 267.525 10.1019 278.936 14.5486 289.569C18.9952 300.202 25.51 309.845 33.7148 317.94C41.9195 326.034 51.6506 332.417 62.3429 336.719C73.0352 341.021 84.4757 343.156 96 343C98.8 343 101.6 342.84 104.304 342.584C102.704 344.8 101.192 347.088 99.792 349.488C94.0223 359.385 90.2772 370.331 88.7743 381.688C87.2713 393.045 88.0406 404.588 91.0374 415.645C94.0341 426.703 99.1986 437.054 106.231 446.098C113.263 455.142 122.022 462.699 132 468.328C152.201 479.88 176.138 483.017 198.633 477.058C221.129 471.1 240.374 456.526 252.208 436.488C253.616 434.088 254.856 431.64 256 429.168C257.144 431.64 258.4 434.088 259.792 436.488C271.626 456.526 290.871 471.1 313.367 477.058C335.862 483.017 359.799 479.88 380 468.328C389.978 462.699 398.737 455.142 405.769 446.098C412.801 437.054 417.966 426.703 420.963 415.645C423.959 404.588 424.729 393.045 423.226 381.688C421.723 370.331 417.978 359.385 412.208 349.488C410.808 347.088 409.288 344.8 407.696 342.584C410.432 342.84 413.2 343 416 343C439.206 343.132 461.514 334.04 478.018 317.725C494.521 301.409 503.867 279.206 504 256ZM256 328C241.76 328 227.839 323.777 215.999 315.866C204.159 307.954 194.93 296.709 189.481 283.553C184.031 270.397 182.605 255.92 185.383 241.954C188.162 227.987 195.019 215.158 205.088 205.088C215.158 195.019 227.987 188.162 241.953 185.383C255.92 182.605 270.397 184.031 283.553 189.481C296.709 194.93 307.954 204.159 315.866 215.999C323.777 227.839 328 241.76 328 256C328 275.096 320.414 293.409 306.912 306.912C293.409 320.414 275.096 328 256 328Z" fill="white"/>
</g>
<defs>
<filter id="filter0_d_4_2" x="-4" y="0" width="520" height="520" filterUnits="userSpaceOnUse" color-interpolation-filters="sRGB">
<feFlood flood-opacity="0" result="BackgroundImageFix"/>
<feColorMatrix in="SourceAlpha" type="matrix" values="0 0 0 0 0 0 0 0 0 0 0 0 0 0 0 0 0 0 127 0" result="hardAlpha"/>
<feOffset dy="4"/>
<feGaussianBlur stdDeviation="2"/>
<feComposite in2="hardAlpha" operator="out"/>
<feColorMatrix type="matrix" values="0 0 0 0 0 0 0 0 0 0 0 0 0 0 0 0 0 0 0.25 0"/>
<feBlend mode="normal" in2="BackgroundImageFix" result="effect1_dropShadow_4_2"/>
<feBlend mode="normal" in="SourceGraphic" in2="effect1_dropShadow_4_2" result="shape"/>
</filter>
</defs>
</svg>
